<?xml version="1.0" encoding="UTF-8"?>
<svg version="1.1" viewBox="0 0 911 911" width="1280" height="1280" xmlns="http://www.w3.org/2000/svg">
<path transform="translate(434)" d="m0 0h43l35 3 36 6 29 7 29 9 28 11 24 11 23 12 23 14 20 14 13 10 11 9 14 12 7 7 8 7 8 8 7 8 11 12 11 14 13 17 14 21 13 22 14 27 12 28 10 28 8 28 7 34 4 29 2 26v43l-3 35-6 36-7 29-9 29-11 28-11 24-12 23-16 26-12 17-10 13-9 11-12 14-7 7-7 8-8 8-8 7-12 11-14 11-17 13-18 12-25 15-27 14-28 12-28 10-28 8-34 7-29 4-26 2h-43l-35-3-36-6-29-7-29-9-28-11-24-11-23-12-26-16-17-12-13-10-11-9-14-12-7-7-8-7-8-8-7-8-11-12-11-14-13-17-12-18-15-25-14-27-12-28-10-28-8-28-7-34-4-29-2-26v-43l3-35 6-36 7-29 9-29 11-28 11-24 12-23 14-23 14-20 10-13 9-11 12-14 7-7 7-8 8-8 8-7 12-11 14-11 17-13 21-14 22-13 27-14 28-12 28-10 28-8 34-7 29-4z" fill="#AE8A67"/>
<path transform="translate(816,178)" d="m0 0 5 5 13 18 13 21 12 21 14 29 13 33 9 29 7 29 6 36 3 35v43l-3 35-6 36-7 29-9 29-11 28-11 24-12 23-16 26-12 17-10 13-9 11-12 14-7 7-7 8-8 8-8 7-12 11-14 11-17 13-18 12-25 15-27 14-28 12-28 10-28 8-34 7-29 4-26 2h-43l-35-3-36-6-29-7-29-9-28-11-24-11-23-12-26-16-17-12-13-10-11-9-14-12-7-7-8-7-6-6v-7l4-5 5-9 7-10 5-5 2-1 1 2v-4h2v4l4 2 10 4 7 5h5l4-2 10-2 5-2v-2l5-5 4-8h2l1-3 8-4h2l1-3 5-2h6l6-4 15-5 10-2 10-6 5-5 9-7 18-5 1-2 8-1h19l5-3 15-3h3v-2l12-2 9-2 25-5v-2l10-3 12-1 6-1v-1h12v-2l7-1h17l9-2 4-1 4-2 3-1h12v1l7 1v-2l14-1 8-2h16l9 1 7-1h8l4 2 6-1h9l5 1 66-1 17-1 10-4 13-3 11-1 4-2v2l12-1v-2l15-1 8-7 9-12 13-26 3-10 2-7 3-11 3-17 2-13 2-1 1 12v19l-8 16-5 16 1 1 4-2v-2h2v-2l4-2 2 4v22l-3 26-1 3h13l2-3h2l1-5 5-9 3-11 4-9 5-17 4-15 5-35 3-37v-88l-3-49-1-17 2 2 4 47 12 36 8 29 6 36 2 16 1 36 3-26v-50l-4-40-5-33-2-10-2-17-4-20-5-36-6-36-9-48-5-26-5-21z" fill="#221615"/>
<path transform="translate(240,88)" d="m0 0h1l-1 11-2 20-3 47v72h2l2-10 12-36h2l2-6 8-1 2 5h2l-1 28h-2l-3 9-11 26-7 19-4 16 8 2h7l7-4 8-7 3-4 8-2v-2l4-3h2v-3l8-5 20-10 10-2 8-4 6-1 1-10h3l3 9v-33l2-6h2l3 7 5 5 2 1 4 12v4h11l4 2-13 1 2 9 8 2v1h-7l4 14 6 2v1h-5l2 7 9 3 4 3h19l3-1 3 1h7l2-2 8 10 2 1v2l2 1-5-1-8-4-4-1 1 16-12-1 1 7 3 19v12l-2 22-3 10-5 10h-2l-2 4-5 5-5 4h-2v2l-11 4h-16l-16-6-7-5-5-3-6-5-2-4-2-1-5-9-5-12-2-11v-23l2-9-10 3-14 8-10 8-8 9-4 7v6l4 9-1 2-5-5v-2l-4-2-8-8-6-4-5-5-3-1v-2l-5-2h-3l-4 18-2 41h-1v-17l-7-1-37-13-30-11-6 1-8 6-10 7-11 8h-2l-1 3-10 7-10 8-5 3-19 14v17l14-4 16-3 16-4 16-3 16-4 60-11 20-2 2 4v14l-1 2v13l1 8 1 1v32l9 27-1 3-4-10-3-9 1 17 2 21 3 8 11 13 6 7 7 6 16 10-2 1-11-6 7 11 9 11 7 6-2 1-16-9-14-11-6-7-2-1 7 28 7 21 7 15 3 6 2 1 2 8 4 2 11 8 12 8 7 4 10 6 3 1v2h3v2l18-6 12-5 12-3 5-2 25-6 15-4 29-6 10-1 8-2 40-5 29-2h60l47 1 25 1h20l9-11 8-10 12-18 12-22 6-12 5-15 2-7 2-6 4-24 1-12v-53l-1-3 9-23 5-14 1-5h2l1-10 4-22 4-38 2-26 1-23 1-5 2 2 7 36 10 61 6 51 4 49 1 35v50l-3 46-5 40-1 2-4-1 3-29v-22l-2-3-3 1v2h-2v2l-6 4 1-5 5-16 7-14v-19l-1-11-3 19-4 18-2 10-3 6-3 9-9 19-8 11-9 10-3 2h-15v2l-2 1h-10-3l-1 1-17 2-11 4-6 2-17 1-66 1-6-1h-9l-6 1v-2h-11l-13 1-3-1h-16l-10 2h-12v2h-8v-1h-11l-4 2-3 1-9 2-4 1h-24v2l-4 1h-7l-4 1-11 2-8 1-6 1v2l-15 4-17 3-10 2h-4v2l-20 5-3 2h-19l-1 2-16 3-10 3-12 9-5 5-10 5-16 3-1 2-7 2-5 3-8 1-8 6-5 2-4 5-4 8-4 2v2l-5 3-12 2-2 2-7-1-9-6-7-3-3-2v-4l-1 5-3-2-5 5-7 10-8 13-2 7-13-13-9-11-11-13-13-18-10-15-15-25-14-27-12-28-10-28-8-28-7-34-4-29-2-26v-43l3-35 6-36 7-29 9-29 11-28 11-24 12-23 4-6h1l-1 24-2 45 5 1v2l12 3 12 4 8 3 14 5 6 2 13 5 7 3 4-1 7-5 1-2 6-3 11-8 20-14 15-10 16-11 3-2 2-25 4-53 5-46 3-21 3-25z" fill="#663B30"/>
<path transform="translate(607,26)" d="m0 0 10 3 26 11 25 12 18 10 21 13 17 12 13 10 11 9 14 12 7 7 8 7 8 8 7 8 11 12 11 14 2 2 7 32 5 25 10 55 6 36 4 31 4 19 2 18 3 16 4 28 3 32v50l-3 26-2 4-1-40-4-30-5-25-7-26-12-36-4-48 2 28 2 37v88l-3 37-5 35-4 15-7 22-4 11-3 7-5 11h-2l-2 4h-9l5-42 3-46v-50l-1-35-5-59-5-41-11-67-5-26-1-5-1 4-2 39-4 40-4 25-3 15h-2l-1 8-9 24-7 16-6 11-11 16h-3l1-5 4-12h2v-7l5-20 4-21 4-40 1-23v-25l-1-32-1 24-2-2-3-8-6-12-2-10v-11l-1-6h-2l-1-5-6-1-3 1-1 10h3l6 13 3 8 3 1v11l1 9h-7l-3-1-2-4v-3h-2l-1 6h-2l-3-13-3-5-4-5-5-4v-2l-4-1-15-8-8-2-2 14h-5l-2-2-1-14-22 5-2-2 3-11 9-2h-7l-1-3 3-13 3-22h3v-2h-2l1-46 1-1v-8l-2-9 3-1-5-3-3-12-6-18-7-20-3-20v-6h-2l-4-21-2-7z" fill="#AE8A67"/>
<path transform="translate(345,13)" d="m0 0 3 1-5 16-2 9-7 16-8 19-12 32-4 10-5 16-4 8-3 2 2 1-1 3-9 4 8-2-1 8-8 28-8 32-6 36-1 8-5 3-1-3-1-16v-42l3-33 2-11 2-3-1-1 1-10 1-8-7 16-3 6-8 5 5-1-1 7-8 20-12 36-4 13h-2l-1-14v-58l3-47 2-20 1-7-3 17-3 25-5 43-4 47-2 32-1 9-10 7-13 9-22 15-14 10-10 7h-3l-1 3-8 6-9-2-12-5-3-2-26-8-10-4-15-5v-2l-5-1v-28l3-43 11-18 12-17 10-13 9-11 12-14 7-7 7-8 8-8 8-7 12-11 14-11 17-13 21-14 22-13 27-14 28-12 28-10z" fill="#AE8A67"/>
<path transform="translate(765,266)" d="m0 0 2 2 7 36 10 61 6 51 4 49 1 35v50l-3 46-5 40-1 2-4-1 3-29v-22l-2-3-3 1v2h-2v2l-6 4 1-5 5-16 7-14v-19l-1-11-3 19-4 18-2 10-3 6-3 9-9 19-8 11-9 10-3 2h-15v2l-2 1h-10-3l-1 1-17 2-11 4-6 2-17 1-66 1-6-1h-9l-6 1v-2h-11l-13 1-3-1h-16l-10 2h-12v2h-8v-1h-11l-4 2-3 1-9 2-4 1h-24v2l-4 1h-7l-4 1-11 2-8 1-6 1v2l-15 4-17 3-10 2h-4v2l-20 5-3 2h-19l-1 2-16 3-10 3-12 9-5 5-10 5-16 3-1 2-7 2-5 3-8 1-8 6-5 2-4 5-4 8-4 2v2l-5 3-12 2-2 2-7-1-9-6-7-3-3-2v-4l-1 5-3-2-2 1 2-5 10-13h3l11 14v2l4 2 3 4 7 2 1-3 5-5-7-9-1-4-3-1-2-3v-3h-2l-8-14v-2h-2l-12-23-3-7-7-17-7-15-6-14-6-17-2-3-2-9-6-19-5-20-5-26-3-23v-16l2 3 7 24 9 24 11 24 11 21 13 21 10 15 8 11 12 16 13 16 9 11 12 13v2l4 2 8 10 7-1 23-13 5-3 16-8 29-11 18-5 3-2 9-3 7-3h3v-2l13-4 25-6 15-4 29-6 10-1 8-2 40-5 29-2h60l47 1 25 1h20l9-11 8-10 12-18 12-22 6-12 5-15 2-7 2-6 4-24 1-12v-53l-1-3 9-23 5-14 1-5h2l1-10 4-22 4-38 2-26 1-23z" fill="#663B30"/>
<path transform="translate(218,455)" d="m0 0 5 1 3 42 5 44 6 37 4 21 4 16 4 15 3 11 2 8 7 16 3 10v4h2l2 7-17 10-4 4-9 4-5-1-9-11-5-5-11-12-18-22-10-13-10-14-9-13-12-19-12-21-12-25-11-28-7-23-1-4v13l4 29 6 29 8 28 2 5 2 7 6 15 5 13 6 14 4 9 7 16 7 15 6 11v2h2l7 13 1 3h2l3 6 3 3 8 12-6 5-1 2-5-1-3-3-3-5-4-4v-2h-2l-6-8-7-9v-2h-2l-1-4h-2l-3-5v-2l-3-1-1-6h-2l-2-5h-2l-5-10-10-17-12-23v-3h-2l-3-9v-4h-2l-1-7h-2l-11-30-7-23-2-7-6-25-6-35v-5l27-9 10-2 26-6 9-2 70-14z" fill="#AE8A67"/>
<path transform="translate(240,88)" d="m0 0h1l-1 11-2 20-3 47v72h2l2-10 12-36h2l2-6 8-1 2 5h2l-1 28h-2l-3 9-11 26-7 19-4 16 8 2h7l7-4 8-7 3-4 8-2v-2l4-3h2v-3l8-5 20-10 10-2 8-4 6-1 1-10h3l3 9v-33l2-6h2l3 7 5 5 2 1 4 12v4h11l4 2-13 1 2 9 8 2v1h-7l4 14 6 2v1h-5l2 7 9 3 4 3h19l3-1 3 1h7l2-2 8 10 2 1v2l2 1-5-1-8-4-4-1 1 16-12-1 1 7 3 19v12l-2 22-3 10-5 10h-2l-2 4-5 5-5 4h-2v2l-11 4h-16l-16-6-7-5-5-3-6-5-2-4-2-1-5-9-5-12-2-11v-23l2-9-10 3-14 8-10 8-8 9-4 7v6l4 9-1 2-5-5v-2l-4-2-8-8-6-4-5-5-3-1v-2l-5-2h-3l-4 18-2 41h-1v-17l-7-1-37-13-24-9 4-1 21 7 10 4 6 2 15 6 11 2v-13l-12-5-1-3-8-2-18-7-11-4-7-2 1-3 5-3h2v-2l4-1v-2l9-6h2l1-3 7-4 1-2 5-3 14-10 5-3 5-6 1-19h-2l-1 2v-3l2-25 4-53 5-46 3-21 3-25z" fill="#673C30"/>
<path transform="translate(816,178)" d="m0 0 5 5 13 18 13 21 12 21 14 29 13 33 9 29 7 29 6 36 3 35v43l-2 26-14 5-18 8-9 6-4 2v10l-3 17-3 10-2 6-3 13-5 13-5 10-3 5h-2l-1 4-7 8-5 5-3 1v2l-14 7-12 5-9-1v-1l8-1 2-3h2l1-5 5-9 3-11 4-9 5-17 4-15 5-35 3-37v-88l-3-49-1-17 2 2 4 47 12 36 8 29 6 36 2 16 1 36 3-26v-50l-4-40-5-33-2-10-2-17-4-20-5-36-6-36-9-48-5-26-5-21z" fill="#231615"/>
<path transform="translate(105,491)" d="m0 0 2 3 7 24 9 24 11 24 11 21 13 21 10 15 8 11 12 16 13 16 9 11 12 13v2l4 2 8 10 7-1 23-13 5-3 16-8 29-11 18-5 3-2 9-3 7-3h3v-2l13-4 25-6 15-4 29-6 10-1 8-2 40-5 29-2h60l47 1 84 4 20 2v1h-9v2l-2 1h-10-3l-1 1-17 2-11 4-6 2-17 1-66 1-6-1h-9l-6 1v-2h-11l-13 1-3-1h-16l-10 2h-12v2h-8v-1h-11l-4 2-3 1-9 2-4 1h-24v2l-4 1h-7l-4 1-11 2-8 1-6 1v2l-15 4-17 3-10 2h-4v2l-20 5-3 2h-19l-1 2-16 3-10 3-12 9-5 5-10 5-16 3-1 2-7 2-5 3-8 1-8 6-5 2-4 5-4 8-4 2v2l-5 3-12 2-2 2-7-1-9-6-7-3-3-2v-4l-1 5-3-2-2 1 2-5 10-13h3l11 14v2l4 2 3 4 7 2 1-3 5-5-7-9-1-4-3-1-2-3v-3h-2l-8-14v-2h-2l-12-23-3-7-7-17-7-15-6-14-6-17-2-3-2-9-6-19-5-20-5-26-3-23z" fill="#461E1B"/>
<path transform="translate(618,73)" d="m0 0h1l4 20 6 17 8 24 1 6 7 3v1h-6l3 9v8l-1 1-1 34-1 12h2v2h-3v8l-3 18-2 11h9l-2 2-9 1-2 12 10-2 13-3 1 1 1 14 6 2 1-11 1-3 8 1 15 8 4 2 5 5 5 6 4 8 1 10h2l1-6h2l2 7 10 1-2-9v-11l-2-1-1 2-3-10-5-11v-2h-3v-8l4-4 6 2 1 5 3-1 1 10v8l3 12 5 10 3 8 1-34h1l1 12 1 32v25l-2 35-2 18h-1v-11l1-9v-10l-2-23-5 2-14 14-4 5-3 4-1-3 3-13v-8l-6-12-8-9-8-5 4 16v29l-3 15-4 12h-2l-2 5-2 4-5 4-4 4-5 2h-14l-8-4-5-4-4-5-5-5-4-5-2-6 10 1 4 6v6l7 7 7 3 1 1h13l9-7 1-3h2l2-13 3-15h-4l-3 13-4 2-2-3 1-4v-7l-4 3h-3v2l-7 1 1-5-7 1v-3l-10-2-2-1-14 3-3 4h-3l-3-14-1-10v-13l2-12 1-2-5 3h-2l1-11 3-11-5 2v2l-9 5-4 2 2-4 7-13 1-4-12 4 2-4 11-8 22-11 2-37 1-22h-10-3l1-2h12l-1-48-2-32-5-39-1-4z" fill="#663B30"/>
<path transform="translate(345,13)" d="m0 0 3 1-5 16-2 9-7 16-8 19-12 32-4 10-5 16-4 8-3 2 2 1-1 3-9 4 8-2-1 8-8 28-8 32-6 36-1 8-5 3-1-3-1-16v-42l3-33 2-11 2-3-1-1 1-10 1-8-7 16-3 6-8 5 5-1-1 7-8 20-12 36-4 13h-2l-1-14v-58l3-47 2-20 3-24 2-15 1-1 1-8 17-9 31-13 36-12z" fill="#AE8A67"/>
<path transform="translate(348,13)" d="m0 0 2 1-3 7-3 16-2 7-6 36-3 32-1 23h8v1l-7 2v24l3 31 9-2 1-21 3-36h-5l4-2 1-6-3-1 2-1 1-12h1l1 11 21-3h33l11 2 12 6 2 4 3 1v3l-7-1-15-3h-45l-7 1h-9l1 7 2 31 2 17 7-2h7v1l-13 2 3 19 2 12-3 1v-5h-2l-6-7-1-6h-2l-1 6v34l-3-3-2-7-1 3-1 7-8 3-10 4-7 1-16 8-10 6h-2v3l-4 3h-2v2l-3 2-6 2-5 5-9 8-3 1h-7l-8-3 1-9 7-21 11-26 4-9 2-7h1l2-26-3 1-1-6-5 2-3-1-2 6-1-3 9-23v-3l-6 1 5-4 5-3 4-10 6-14 1 4-2 12v5l3 2-4 2-2 11-3 33v42l1 16 1 2 3-2 4-28 5-25 12-45 4-14-8 3-3-1 12-5 1-2-4-1 5-3 4-9 4-14 9-24 6-14 6-16 11-25 2-11 4-12z" fill="#784D38"/>
<path transform="translate(350,270)" d="m0 0h20l3 1 2 4-4 1h-21l-10 3-5 5 33-1 14-1v-3l-3-1 4-1v-2l5 2h19l3-1 3 1h7l2-2 8 10 2 1v2l2 1-5-1-8-4-4-1 1 16-12-1 1 7 3 19v12l-2 22-3 10-5 10h-2l-2 4-5 5-5 4h-2v2l-11 4h-16l-16-6-7-5-5-3-6-5-2-4-2-1-5-9-5-12v-38l3-11 6-12 13-13 11-6z" fill="#673C30"/>
<path transform="translate(816,178)" d="m0 0 5 5-1 2 3 15 4 16 9 50 3 18 2 8 9 58 2 13 3 21 3 16 7 49 9 11 3 2-4-11-4-13 1-2 8 10 11 16 1 4-13 10v1l12-9 22-11v20l-2 26-14 5-18 8-9 6-4 2v10l-3 17-3 10-2 6-3 13-5 13-5 10-3 5h-2l-1 4-7 8-5 5-3 1v2l-14 7-12 5-9-1v-1l8-1 2-3h2l1-5 5-9 3-11 4-9 5-17 4-15 5-35 3-37v-88l-3-49-1-17 2 2 4 47 12 36 8 29 6 36 2 16 1 36 3-26v-50l-4-40-5-33-2-10-2-17-4-20-5-36-6-36-9-48-5-26-5-21z" fill="#663B30"/>
<path transform="translate(105,491)" d="m0 0 2 3 7 24 9 24 11 24 11 21 13 21 10 15 8 11 12 16 13 16 9 11 12 13v2l4 2 8 10 4 2-11 6-20 15-11 10-5-5-4-5-1-4-3-1-2-3v-3h-2l-8-14v-2h-2l-12-23-3-7-7-17-7-15-6-14-6-17-2-3-2-9-6-19-5-20-5-26-3-23z" fill="#663B30"/>
<path transform="translate(645,53)" d="m0 0 2 3 4 16 3 19 2 7 2 13 11 27 5 13v3l5 2 2 3-5-1 10 34 8 33 5 26 4 23v-21l-3-45v-8l2 2 11 29 9 29 7 31v6l-3-4-4-9-3-12v-11l-1-6h-2l-1-5-6-1-3 1-1 10h3l6 13 3 8 3 1v11l1 9h-7l-3-1-2-4v-3h-2l-1 6h-2l-3-13-3-5-4-5-5-4v-2l-4-1-15-8-8-2-2 14h-5l-2-2-1-14-22 5-2-2 3-11 9-2h-7l-1-3 3-13 3-22h3v-2h-2l1-46 3-4 5 25 5 36 2 28v8h5l1-13v-74l-2-18-3-3h4l-2-12-3-26-1-1-4-27-2-5-2-14z" fill="#7B5039"/>
<path transform="translate(50,247)" d="m0 0 1 3-9 44-4 27-1 9-2 9-6 50-3 37-1 17v90l3 47 1 18-3-4-6-17-9-27-2-7h-1l-5-31-3-35v-43l3-35 6-36 7-29 9-29 11-28 11-24z" fill="#9B795C"/>
<path transform="translate(222,266)" d="m0 0h2v19l-6 7-11 7-10 8h-3l-1 3-7 4-4 4-6 4h-2v2l-4 1v2l-7 4-1 2 7 1 11 4 20 8 6 2 3 3 10 4 1 1v13l-4 1-10-3-13-5-10-4-6-1v-2l-9-2-12-4-10-2-6 1-8 6-10 7-11 8h-2l-1 3-10 7-10 8-8 1v2l-8 6-4 1v2h-2l-1 3-4 3-3-1-1-7v-11l3-2h3l2-4 12-10 8-6 13-11 9-6h2l2-4 8-6-11-5-8-3-1-2-3-2v-10l2-7 8 3 12 4 8 3h5l7 3 4-1 7-5 1-2 6-3 11-8 20-14 15-10 16-11z" fill="#48201C"/>
<path transform="translate(142,346)" d="m0 0 7 1 58 21 13 4v18l-10 2-36 6-36 7-12 3-26 5-12 3-22 5h-2l-1-4v-13l21-16 9-6 10-8 5-3 3-3 11-8 10-7z" fill="#AE8A67"/>
<path transform="translate(639,281)" d="m0 0h15l10 4 10 10 4 8v1l-11 2-2 6 4 1h9l4-1 4 10 1 6v29l-3 15-4 12h-2l-2 5-2 4-5 4-4 4-5 2h-14l-8-4-5-4-4-5-5-5-4-5-2-6 10 1 4 6v6l7 7 7 3 1 1h13l9-7 1-3h2v-3h2l3-12 2-5h2l-2-10-1-20-5-1v2l-7 1v8l-3 10-1 2h-3v2l-6 3 1-4-9-2v-2h-2l-5-13-7-3-12-2v17l-4 4-3-9-1-6v-20l3-18 6-11 8-9 8-5z" fill="#663B30"/>
<path transform="translate(216,410)" d="m0 0h5v22l-15 3-13 2-53 11h-8v2l-35 8-7 2-20 5h-2l-2-18v-5l29-7 26-5 9-3 17-3 7-2 16-3 25-5z" fill="#AD8967"/>
<path transform="translate(322,140)" d="m0 0 2 2 1 26 2 18 1 1v10l-7 3 8-1 7 33 2 6v5l-19 2-15 3-19 7-4 2h-3l4-16 7-25 10-29 10-26 9-20z" fill="#AD8967"/>
<path transform="translate(275,133)" d="m0 0 1 4-2 12v5l3 2-4 2-2 11-3 33v42l1 16 1 2 3-2 4-28 5-25 12-45 2-6 2 3 1 7 5 1 2-4 4-9 1-3 3-2-1 5-10 25-9 25-8 26-7 25-1 2 15-6 11-4 21-4h13v1l-7 2-10 4-7 1-16 8-10 6h-2v3l-4 3h-2v2l-3 2-6 2-5 5-9 8-3 1h-7l-8-3 1-9 7-21 11-26 4-9 2-7h1l2-26-3 1-1-6-5 2-3-1-2 6-1-3 9-23v-3l-6 1 5-4 5-3 4-10z" fill="#7A4F39"/>
<path transform="translate(819,184)" d="m0 0h3l14 20 3 6h-2l4 16 5 30 3 16 2 15 3 17 1 1 3 26 1 13 2 12 4 15 5 45 6 24h2l5 10 6 7 3 5 12-2v-2l6-1-3 3-15 8-6 3-10 8-2-1 10-9 5-3-2-6-14-19-3-3 7 22v2l-4-2-9-11-7-49-4-23-3-17-3-22-8-52-3-13-7-41-6-30-3-12z" fill="#461E1B"/>
<path transform="translate(338,243)" d="m0 0h5l4 11 1-2-1-8 1-1h10l7 2 4 15v3h-19l-1 2-9 1-16 5-10 4-14 8-12 9-16 16-7 10-5 9-1 13h-1l-1-13-6-1-5-4-2-15-1-3 5-5h2l-2-6 8-1 10-11 5-5 9-3v-2l4-3h2v-3l8-5 20-10 10-2 8-4z" fill="#471E1B"/>
<path transform="translate(816,178)" d="m0 0 5 5-1 2 3 15 4 16 9 50 3 18 2 8 9 58 2 13 3 21 3 16 7 49 9 11 3 2-4-11-4-13 1-2 8 10 11 16 1 4-13 10v1l12-9 22-11v20l-2 26-14 5-18 8-9 6-4 2-1-56-4-40-5-33-2-10-2-17-4-20-5-36-6-36-9-48-5-26-5-21z" fill="#663B30"/>
<path transform="translate(322,343)" d="m0 0h12l6 3 8 1v2h2l1 4 3 1v2h3v-2l5 1v4l10-2 2-4h2v-2l7-1-1 7-3 7 4 1 3-5 2-9h11v7l-5 16-3 8-3 4-4 2-3 3-9 4h-15l-11-4-6-3-3-3-1-4-9-10-3-5-7-1-4-8v-6l3-4h2v-2z" fill="#AE8A67"/>
<path transform="translate(212,434)" d="m0 0h10l1 6v13l-11 2-4 1-13 3-1 1-15 1-9 3-18 3-16 4-10 1-8 3-5 1-3-3-1-5v-12l21-5 16-4 24-4 16-4 8-1z" fill="#461E1B"/>
<path transform="translate(618,73)" d="m0 0h1l4 20 6 17 8 24 1 6 7 3v1h-6l3 9v8l-1 1-1 34-1 12h2v2h-3v8l-3 18-2 11h9l-2 2-9 1-2 12h5l-3 2-4 2-2 10-7 3-2 7-7 6 2 3-2 2v-3l-5 2v2l-9 5-4 2 2-4 7-13 1-4-12 4 2-4 11-8 22-11 2-37 1-22h-10-3l1-2h12l-1-48-2-32-5-39-1-4z" fill="#794E38"/>
<path transform="translate(218,390)" d="m0 0 5 1 1 3v14l-1 2v13l1 8 1 1v32l9 27-1 3-4-10-3-9 1 17 2 21 3 8 11 13 6 7 7 6 16 10-2 1-11-6 7 11 9 11 7 6-2 1-16-9-14-11-6-7-2-1 7 28 6 18-1 3-4-8-5-1v10l-4-1-2-6-4-23-5-31-5-44-3-42-9 1-16 3-9 2-45 9h-7l4-2 12-3 23-4 4-2 15-1 8-3 9-1 7-2 4-1v-18l-16 1 3-2 5-1h7v-22l-33 6-26 6-11 2-13 3-12 2-5 2-10 1v-2l17-4 12-2 12-3 11-2 20-4 1-1 24-4 13-4-1-12-8-1-18 3-20 4-12 2-2 1-15 2-5 2-12 2-12 3-7 1-3-1 4-2 16-3 16-4 60-11z" fill="#663B30"/>
<path transform="translate(668,166)" d="m0 0 3 4 8 20 9 28 6 23 3 14 3 17 2 5v7l-4-2-4-5-5-4v-2l-4-1-15-8-8-3v-2h12l8 3 7 4-3-3-7-4-4-1-13-1v-11l4-48 1-29z" fill="#AC8866"/>
<path transform="translate(60,316)" d="m0 0 9 2 14 5 9 3 10 3 18 7-5 5-5 4-3 3-11 8-13 11-16 12-4 4h-2l-2-40v-15z" fill="#AD8967"/>
<path transform="translate(212,392)" d="m0 0 8 1 1 1 1 12-8 3-11 3-19 3-6 2-13 2-6 2-17 3-7 2-13 2-12 3-5 1-2-6v-10l3-3 10-2 15-4 9-1 7-2 13-2 5-1 18-4 16-3z" fill="#461E1B"/>
<path transform="translate(348,13)" d="m0 0 2 1-3 7-3 16-2 7-6 36-3 32-1 23h8v1l-9 2-1 4-4-1h-8l-2 6-5 5-1 5-3 7-3 4-5-1-1-1-1-13 1-5-8 3-3-1 12-5 1-2-4-1 5-3 4-9 4-14 9-24 6-14 6-16 11-25 2-11 4-12z" fill="#683D31"/>
<path transform="translate(219,290)" d="m0 0h2v29l-1 34-6-1-27-10-11-5-14-4 1-3 5-3h2v-2l4-1v-2l9-6h2l1-3 7-4 1-2 5-3 14-10z" fill="#AD8966"/>
<path transform="translate(398,316)" d="m0 0 3 6 1 10v21l-4 20v2h2l1-5 2-1-1 6-2 3h-2l-2 4-5 5-5 4h-2v2l-11 4h-16l-16-6-7-5-5-3-6-5-2-4-2-1-5-9-5-12v-5l3 4h1l2 9 2 4 7 1 7 9 5 6 2 2-1 3 3 1v2l5 1 8 4 4 1h15l9-4h2l2-4h3l2-4 3-8 5-16 1-7h-11l-1 9-3 5-4 1-2-2 4-10 1-4-7 1v2l-6 5-8 1v-4l-5-1v2h-3l-4-5v-2h-2v-2h-8l-6-3h-12l-4 1v2h-2l1-18 1-1 20 1 9 3v8h2l4 10 1 1 8 1v2h2v2l8-2v-2h2v-2l4-4 1-2 2-17 6-3 1-2 6-2v-2h4z" fill="#794E38"/>
<path transform="translate(293,143)" d="m0 0h7l-1 3-9 4 8-2-1 8-8 28-8 32-6 36-1 8-5 3-1-3-1-16v-42l3-33 2-11 2-3-1-2 16-8z" fill="#AC8966"/>
<path transform="translate(469,28)" d="m0 0h1l4 41 2 23 5 20 8 42 4 32 3 38v36h2l1-12 4-32 1-12h1v14l-3 26-5 28-2 2-2-61-3-32-2-13-4 44-3 22-5 24-5 16h-1v-10l2-17 2-29 1-22v-61l-2-51-3-36-1-11z" fill="#7B5039"/>
<path transform="translate(539,558)" d="m0 0h15l6 2 3 3 1 5v8l-3 8-5 5-5 3-14-2v2l-3 1h-20l-13-1-3-1-1-5 6-8 9-9 8-4h2v-2z" fill="#673C30"/>
<path transform="translate(350,270)" d="m0 0h20l3 1 2 4-4 1h-21l-10 3-5 5 33-1 14-1v-3l-3-1 4-1v-2l5 2 1 3 4 2 7 7 2 4v3h-10l-5 1-6-1 2-1-1-6h-5l-1 4 2 3-9 1-2 1-21 2-9 1-2-6-5 1v7l-10 5-2 6-4 4-1 6-1 24-2-4-1-3v-27l3-11 6-12 13-13 11-6z" fill="#461E1B"/>
<path transform="translate(709,248)" d="m0 0 6 2 1 5 3-1 1 10v8l3 12 5 10 3 8 1-34h1l1 12 1 32v25l-2 35-2 18h-1v-11l1-9v-10l-2-23-5 2-14 14-4 5-3 4-1-3 3-13v-8l-8-16 4 2v3l5 1 1 5 1-6 6 1v-2l6-2v-2h2l-4-12h-2v-4l8-4-1-1h-2l-2-8v-11l-2-1-1 2-3-10-5-11v-2h-3v-8z" fill="#663B30"/>
<path transform="translate(637,136)" d="m0 0 13 2v2l5 1 5 3v3l-2 1 2 2 2 18v74l-2 13h-5l-4-45-5-32-6-28-1-6 3-1-5-3z" fill="#AD8966"/>
<path transform="translate(854,532)" d="m0 0h3l-4 18-7 20-8 16-6 10-11 13-11 9-2-1 4-11 5-15 6-25 3-15 17-10z" fill="#451D1A"/>
<path transform="translate(639,281)" d="m0 0h15l10 4 10 10 4 8v1l-14 1h-32l-2-2-4 1-1 4-4 4-2 4-1 8v32l-3 4-3-9-1-6v-20l3-18 6-11 8-9 8-5z" fill="#461E1B"/>
<path transform="translate(499,32)" d="m0 0h2l3 36 8 44 7 47 5 41 2 24v36h-1l-5-40-6-32-5-24v-4h-2v30l-1 14h-1v-45l-1-51-2-37z" fill="#7B5039"/>
<path transform="translate(662,260)" d="m0 0 8 1 15 8 4 2 5 5 5 6 4 8 1 10h2l1-6h2l2 7h10l5-1-5 5-5 1v4h2l4 8v4h-2v2l-3 2h-3v2h-5l-1 9-2-4-4-15-4-10-9-14-1-3h-2v-2l-4-2-9-6-12-5-5-1 4-1 1-11z" fill="#471F1C"/>
<path transform="translate(857,533)" d="m0 0h1l1 19 1 4-3 6-4 18-5 13-5 10-3 5h-2l-1 4-7 8-5 5-3 1v2l-14 7-12 5-9-1v-1l8-1 2-3h2l1-5 6-11 7-3 11-10 7-9 7-11 9-20 6-19 3-12z" fill="#663B30"/>
<path transform="translate(372,245)" d="m0 0 9 1 19 6 17 6 5 3 11 6-3 1-8-3-6-1 4 8 1 5-1 1h-7l-5-1-1 1h-19l-6-4-8-3-1-1v-7l-3-5-2-7v-4z" fill="#AD8966"/>
<path transform="translate(360,308)" d="m0 0 9 1 7 7 3 8v18l-2 6-1 2h-2v2h-2v2l-3 2h-5v-2h-2v-2h-8l-4-5-1-5-1-2-1-15 3-9h2l3-6z" fill="#461E1B"/>
<path transform="translate(816,178)" d="m0 0 5 5-1 2 3 15 4 16 9 50 3 18 2 8 9 58 2 13 3 21 3 16 7 49 9 11 3 2-4-11-4-13 1-2 8 10 11 16 1 4-13 10-4 5-7 4-2-7-4-42-4-28-4-23-2-17-4-20-5-36-6-36-9-48-5-26-5-21z" fill="#663B2F"/>
<path transform="translate(690,138)" d="m0 0h2l3 15 2 16 2 8 2 15v16l3 45v29h-1l-6-38-8-36-10-37-4-14 4 1 5 2 11 11-5-26z" fill="#AC8866"/>
<path transform="translate(264,220)" d="m0 0h1l1 6 2 38-4 1v2l4-1 1 6v8l-12 10-3 1h-7l-8-3 1-9 7-21 11-26z" fill="#AC8866"/>
<path transform="translate(641,163)" d="m0 0 2 1 7 41 3 31v20l-8 1-10 4-6 2-1-2 3-11 9-2h-7l-1-3 3-13 3-22h3v-2h-2v-12z" fill="#AC8866"/>
<path transform="translate(349,112)" d="m0 0h1l1 11 21-3h33l11 2 12 6 2 4 3 1v3l-7-1-15-3h-45l-7 1h-9l1 7 2 31 2 17-10 3 1-21 3-36h-5l4-2 1-6-3-1 2-1z" fill="#7A4F38"/>
<path transform="translate(608,297)" d="m0 0h1v11l4 4-1 13v20l3 13 3-2v-14l1-3 16 2 4 3 4 10v3h2v2l9 2v3l5-2v-2h3l3-12 1-8 7-1v-2l4-1 2 2 1 20 1 10h-2l-3 12-2 5-1-4 4-21h-4l-3 13-4 2-2-3 1-4v-7l-4 3h-3v2l-7 1 1-5-7 1v-3l-10-2-2-1-14 3-3 4h-3l-3-14-1-10v-13l2-12 1-2-5 3h-2l1-11z" fill="#784D37"/>
<path transform="translate(105,491)" d="m0 0 2 3 7 24 9 24 11 24 11 21 13 21 10 15 8 11 7 9v2l-4-2-4-6-5-5-1-3-4-4-5-8-6-8-4-8-4-7v-2l-4-2v-2l-4-2-3-3-3-12-6-9-1-3-4 1-1 4 3 6v9l2 6 2 11 3 4-1 3-3 1-2-9-6-19-5-20-5-26-3-23z" fill="#7B5039"/>
<path transform="translate(218,390)" d="m0 0 5 1 1 3v14l-1 2v13l1 8 1 1v32l9 27-1 3-4-10-3-9 1 17 2 21 3 8 11 13-2 2-6 2-2 4-1 6h-1l-4-30-4-45-1-17-9 1-16 3-9 2-45 9h-7l4-2 12-3 23-4 4-2 15-1 8-3 9-1 7-2 4-1v-18l-16 1 3-2 5-1h7v-22l-33 6-26 6-11 2-13 3-12 2-5 2-10 1v-2l17-4 12-2 12-3 11-2 20-4 1-1 24-4 13-4-1-12-8-1-18 3-20 4-12 2-2 1-15 2-5 2-12 2-12 3-7 1-3-1 4-2 16-3 16-4 60-11z" fill="#704535"/>
<path transform="translate(784,526)" d="m0 0h1l1 12v19l-8 16-5 16 1 1 4-2v-2h2v-2l4-2 2 4v22l-3 26-1 3 14 2 12-5 12-6 2 1-7 5-10 5-3 6-13 2-8-4-2-3 1-5-2-8-1-19-3-5-5-4-3 1-1 4-8 11-3 2 2-5 6-10 8-17 3-10 2-7 3-11 3-17 2-13z" fill="#461E1B"/>
<path transform="translate(275,133)" d="m0 0 1 4-2 12v5l3 2-4 2-2 11-3 33v42l1 16 1 2 4-2v2l12-6 12-5 16-4 10-1-2 2-15 6-9 5-10 6h-2v3l-4 3h-2v2l-3 2-6 2-2 2-1-13-4 1v-2l4-1-1-3-2-35-1-5-1-3 2-2 2-26-3 1-1-6-5 2-3-1-2 6-1-3 9-23v-3l-6 1 5-4 5-3 4-10z" fill="#7A4F39"/>
<path transform="translate(50,247)" d="m0 0 1 3-9 44-2 14h-2l-1 9-1 3-1 5-3 4-3 6-6 6-6 1-2-4 8-27 10-27 12-27z" fill="#AD8967"/>
<path transform="translate(332,112)" d="m0 0h1l1 15 7-1h8v6 2 13l-3 37-1 7-9 3-1-1-3-31v-24l3-2-3-1z" fill="#AC8966"/>
<path transform="translate(649,318)" d="m0 0h6l6 5 3 7 1 7v15l-3 8h-3v2l-6 3 1-4-9-2v-2h-2l-3-9-1-6v-10l4-8 5-5z" fill="#461E1B"/>
<path transform="translate(225,472)" d="m0 0 2 3 5 15 1 4h2l7 16 3 5 8 16 11 14 10 10 10 7 14 6v2l-9-2-17-9-3-3-13-8-8-7v-2l-4-2-13-16-3-8-3-32z" fill="#A78362"/>
<path transform="translate(522,575)" d="m0 0h25l7 3 3 2 2 6-4 4-4 2-14-2v2l-7 1v-1l-30-2-1-3 5-5 8-4z" fill="#845940"/>
<path transform="translate(240,88)" d="m0 0h1l-1 11-2 20-3 47v72h2l-1 6-2-4-1-8h-7v9l-1 1-2 23h-1l1-25 4-53 5-46 3-21 3-25z" fill="#7A4F38"/>
<path transform="translate(765,266)" d="m0 0 2 2 7 36 10 61 6 51v11l-2-2-2-15-1-2v-9l-2-15-3-27v-4h-2l-2-15-2-5-3-1 1-4 1 1 1-4h-2l-6-8-1-2-6 42h-1l1-17 3-30 2-39z" fill="#7B5039"/>
<path transform="translate(347,203)" d="m0 0h2l3 7 5 5 2 1 4 12v4h11l4 2-13 1 2 9 8 2v1h-7l2 7v4h-2l-2-5-1-8-7-1h-10l1 10h-3l-3-11h-4v-10h3l3 9v-33z" fill="#673C30"/>
<path transform="translate(164,691)" d="m0 0 3 3 2 6h2l7 13 1 3h2l3 6 3 3 8 12-6 5-1 2-5-1-3-3-3-5-4-4v-2h-2l-6-8-7-9v-2h-2l-1-4h-2l-3-5v-2l-3-1-1-3 5 2 3 3v2h2v3h4l6 1-1-10z" fill="#9A785B"/>
<path transform="translate(93,460)" d="m0 0 4 1 2 7 1 9h-2l-1 3-15 4-10 4-3 2-3-5-1-4v-13l1-2 11-2z" fill="#461E1B"/>
<path transform="translate(421,275)" d="m0 0 5 5 4 5 2 1v2l2 1-5-1-8-4-4-1 1 16-12-1 1 7 3 19v12l-2 22-3 10h-3l4-16 1-10v-21l-2-13-1-1-5 1h-11l-3-2 1-5 6-4h8l3 1 1-4 5-2-1-6-1-3h-12l-5-5 17-1 3-1 3 1h7z" fill="#7A4F39"/>
<path transform="translate(618,73)" d="m0 0h1l4 20 6 17 8 24 1 6 7 3v1h-7v2h-2l-2 2 1 4 2 2-1 17 1 9-2 6-4-4-1-8v-9h2l-1-6-2 2-1-19h-2l-6-51-2-10z" fill="#663B30"/>
<path transform="translate(197,435)" d="m0 0h9v1l-16 4-10 1-14 4-20 3-6 2-10 2-16 4h-5l1 12 1 7 11-2 4-2h10l-2 2-26 6-16 4-19 6-2-1 5-3 9-3 12-3 2-3-2-15-6 1-14 3-4 1-3-2 20-5 7-2 30-7h5v-2l17-3z" fill="#683D31"/>
<path transform="translate(700,200)" d="m0 0 2 2 11 29 9 29 7 31v6l-3-4-4-9-3-12v-11l-1-6h-2l-1-5-6-1-3 1-1 14h-1l-4-56z" fill="#7A4F39"/>
<path transform="translate(63,224)" d="m0 0h1l-1 24-2 45 5 1-1 2-5-2-1-13-1-4-2-1 3-3-1-7-5 2h-3v10l-4 2-2 16-1 2-2 12-2 9h-1l1-11 4-24 8-39 11-20z" fill="#7C513A"/>
<path transform="translate(322,343)" d="m0 0h12l6 3v2l3 1 1 2v7l-3 1v3l-5 3-10 1-9-1-4-8v-6l3-4h2v-2z" fill="#AD8967"/>
<path transform="translate(683,316)" d="m0 0 2 3 2 9v29l-3 15-4 12h-2l-2 5-2 4-5 4-4 4-5 2h-14l-8-4-5-4-4-5-5-5-4-5-2-6 10 1 4 6v6l7 7 7 3 1 1h13l9-7 1-3h2v-3h2l3-12 2-5h2l-1-8h3l1-3 1-26-2-9-1-3z" fill="#683D31"/>
<path transform="translate(816,178)" d="m0 0 5 5-1 2 3 15 4 16 9 50 3 18 2 8 9 58 2 13 3 21 3 16 4 27 1 17v12h-1l-4-36-4-25-2-10-2-17-4-20-5-36-6-36-9-48-5-26-5-21z" fill="#6F4434"/>
<path transform="translate(88,417)" d="m0 0 4 1 1 15-7 3-19 5-5-1-1-3v-13l2-3 12-1 6-2z" fill="#461E1B"/>
<path transform="translate(83,368)" d="m0 0 3 1v16l-1 2-5 1v2l-8 6-4 1v2h-2l-1 3-4 3-3-1-1-7v-11l3-2h3l1-3 6-3 7-5 3-3z" fill="#461E1B"/>
<path transform="translate(57,293)" d="m0 0 24 9 3 2v16l-4 1-14-5-8-1-2-3v-16z" fill="#461E1B"/>
<path transform="translate(651,257)" d="m0 0 2 1 1 14 1 2-17 3-10 4-10 7-7 4-2-1 7-6 2-7 7-2 1-10 5-3 11-4z" fill="#461E1B"/>
<path transform="translate(630,262)" d="m0 0 4 1-7 3-2 10-7 3-2 7-7 6 2 3-2 2v-3l-5 2v2l-9 5-4 2 2-4 7-13 1-4-12 4 2-4 11-8 22-11h2v-2z" fill="#6B4032"/>
<path transform="translate(790,427)" d="m0 0h1l3 38 1 35v50l-3 46-5 40-2 1v-11l1-2 2-33-2-6v-5h2l2-10 1-6 1-22v-61l-1-13 1-14h-2v-7l-1-3v-16z" fill="#81563D"/>
<path transform="translate(348,13)" d="m0 0 2 1-3 7-3 16-2 7-6 36-3 32-2-4-1-8h2l-2-13-4 1-4 3-2-1 3-10 8-20 9-21 4-15 3-10z" fill="#7B5039"/>
<path transform="translate(608,297)" d="m0 0h1v11l4 4-1 13v20l3 13 3-2v-14l1-3 16 2 4 3 4 10-1 3-5-7h-4l-1 7-13 3-3 4h-3l-3-14-1-10v-13l2-12 1-2-5 3h-2l1-11z" fill="#784D37"/>
<path transform="translate(161,719)" d="m0 0 5 5 8 10v2l4 2 3 4 7 2-4 4-4 2-7-1-9-6-7-3-3-2v-4l-1 5-3-2-2 1 2-5 10-13z" fill="#461E1B"/>
<path transform="translate(627,206)" d="m0 0 7 2h7v2h-3v8l-3 18-2 11h9l-2 2-9 1-2 13h-3l-1 2v-14z" fill="#7A4F39"/>
<path transform="translate(825,342)" d="m0 0 2 2 4 47 14 42v5l-1-3h-2v-4h-7l-3 2-1 63h-1l-1-88-3-49z" fill="#7D523A"/>
<path transform="translate(645,53)" d="m0 0 2 3 4 16 3 19 2 7 2 13 11 27 5 13v3h2v2h-2l-1 2-5-2-4-4h-3l-1-7-1-1-4-35-1-1-4-27-2-5-2-14z" fill="#7A4F39"/>
<path transform="translate(309,347)" d="m0 0 3 4h1l2 9 2 4 7 1 7 9 5 6 2 2-1 3 3 1v2l5 1 8 4 4 1h15l9-4h2l2-4h3l2-4 5-7 2-5 1 3v2h2l1-5 2-1-1 6-2 3h-2l-2 4-5 5-5 4h-2v2l-11 4h-16l-16-6-7-5-5-3-6-5-2-4-2-1-5-9-5-12z" fill="#714635"/>
<path transform="translate(583,396)" d="m0 0 8 1 11 8 5 5v10l-4 7-4-1-8-9v-2h-2l-6-8z" fill="#7C513A"/>
<path transform="translate(376,122)" d="m0 0h27l14 3 12 6 1 2-7-1-19-3h-30l-23 3-1-1v-5l1-1z" fill="#AE8A67"/>
<path transform="translate(62,295)" d="m0 0 10 2 18 6 8 3 14 5 6 2 9 4-2 2-7-3-12-4-8-3-1 6v10l3 3-8-1-9-3-14-5-9-3v12h-1v-14l9 2 12 4h3v-16h-2l-1-2-18-6z" fill="#693E31"/>
<path transform="translate(340,347)" d="m0 0h8v2h2l1 4 3 1v2h2l-1 4-7 2v2l4 2 7 5-4 3-6 2-7-4-4 2-1 2h-5l-6-7-2-4h7l7-2 3-1v-3l2-1v-7z" fill="#9A785B"/>
<path transform="translate(232,550)" d="m0 0 2 2 2 13h2v2l4 1-1-16h1l5 22 6 20 2 5-1 3-4-8-5-1v10l-4-1-2-6-4-23-3-17z" fill="#7A4F39"/>
<path transform="translate(523,623)" d="m0 0h60l47 1 45 2v1h-54l-34-1h-69l-17 1-22 2-27 4-6 1v-2l8-2 40-5z" fill="#714636"/>
<path transform="translate(664,360)" d="m0 0 2 1v7l-1 5h4l3-11 1-2h4v7l-5 21h-2l-1 4-2 1-1-4 4-5 1-6-3-2-2 5-3 3-5-1h-10l-3 1-6-4-1-3-3-1 1-3 3-1 9 5h7l6-2 1-7-6-1 2-1v-2l6-2z" fill="#9A785B"/>
<path transform="translate(318,328)" d="m0 0 20 1 9 3v8h2l2 5-2 2v-3h-2l-1-5h-9v5h-15l-4 1v2h-2l1-18z" fill="#784D37"/>
<path transform="translate(105,348)" d="m0 0h2l-1 3-5 4-3 2v18l6-2v-2l3-2 2-2 6-2-4 4h-2l-1 3-10 7-10 8-4-1 2-1-1-16-5 2-2 2-4 3-7 5-2-1 12-10 8-6 13-11z" fill="#683D31"/>
<path transform="translate(905,503)" d="m0 0 3 1-12 6-3 6-2 2h-7l-9 3-3 8-6 11-3 10-1 7h-2l-2 11-5 16-5 13-2 1 1-5 6-16 3-15 1-3h2l2-11 3-24 11-8 13-6z" fill="#48201C"/>
<path transform="translate(100,412)" d="m0 0h7l-1 2-2 2v10l2 5 4-1 1 2-16 4-26 6h-2v-2l25-7-1-15-10 1-6 2-12 1v-5l1 4 14-4 16-3z" fill="#683D31"/>
<path transform="translate(388,351)" d="m0 0h11v7l-5 16-3 8-3 4-4 2-2 2 1-6h2l2-4h2l2-7-4-2v-2h-4l-1 3-8 1-3-2 1-3 4-4 7 1 3-5z" fill="#9A785B"/>
<path transform="translate(350,275)" d="m0 0h28l4 4v3l-14 2-31 1-2-1 2-4 8-4z" fill="#663B30"/>
<path transform="translate(220,319)" d="m0 0 2 3v2h2l1 3 4 2-2 1-4 18-2 41h-1v-17l-7-1-37-13-24-9 4-1 21 7 10 4 6 2 15 6 11 2v-13l-12-5-1-2 5 1 9 3z" fill="#704535"/>
<path transform="translate(541,559)" d="m0 0h18l4 4 1 5v8l-3 8-3 1-6-12-5-5-5-4-4-1 1-3z" fill="#461E1B"/>
<path transform="translate(642,158)" d="m0 0h1l5 25 5 36 3 38 8 2-2 1-2 14h-5l-2-2-1-14-16 4-4-1 12-4 1-1h8l-2-32-3-26-6-34-1 16h-1v-18z" fill="#7E533C"/>
<path transform="translate(398,316)" d="m0 0 3 6 1 10v18h-1l-1-17-8 1-3 1-1 8-2 3-1-5-5-1v-8l1-5 6-3 1-2 6-2v-2h4z" fill="#784D37"/>
<path transform="translate(320,246)" d="m0 0 4 1-14 6-12 6-10 6h-2v2l-5 3h-2v2l-5 2 2-11 1-3 21-9 16-4z" fill="#AA8665"/>
<path transform="translate(223,454)" d="m0 0h1l1 10 9 27-1 3-4-10-3-9 1 17 2 21 3 8 11 13-2 2-6 2-2 4-1 6h-1l-4-30-4-45-1-18z" fill="#7A4F39"/>
<path transform="translate(27,401)" d="m0 0h1v15l-2 39v63l2 42 3 38v6h-2l-6-14 1-4 4 10-3-46-1-17v-90z" fill="#82573E"/>
<path transform="translate(378,263)" d="m0 0 7 1 9 3 14 8-1 3h-19l-6-4-8-3-1-1v-6z" fill="#A98563"/>
<path transform="translate(618,73)" d="m0 0h1l4 20 6 17 8 24-1 2-5-1-6-1-5-43-2-10z" fill="#7C513A"/>
<path transform="translate(399,332)" d="m0 0 2 1 1 20-4 17-4 8-2 1 3-10 3-11 1-7h-11v5h-1l1-12 1-9 3-2z" fill="#855A40"/>
<path transform="translate(341,193)" d="m0 0h4l1 50-3-3-7-38v-7z" fill="#A88563"/>
<path transform="translate(706,262)" d="m0 0 3 4 6 16 5 15v4l-8-1-1-4h-2l-3-4z" fill="#A78463"/>
<path transform="translate(334,196)" d="m0 0 2 2 6 31-1 4-1 3-1 7h-1l-6-25-3-14v-5l-9 2 1-2 6-2z" fill="#7B5039"/>
<path transform="translate(222,408)" d="m0 0 1 2v13l1 8 1 1v22l-12 3-16 3-9 2-45 9h-7l4-2 12-3 23-4 4-2 15-1 8-3 9-1 7-2 4-1v-18l-16 1 3-2 5-1h7v-22h-5v-1z" fill="#734836"/>
<path transform="translate(404,305)" d="m0 0 2 3 2 13v21l-2 16-3 10-3 7-3 1 1-6 4-15 1-11v-11l-2-23 1-3h2z" fill="#461E1B"/>
<path transform="translate(732,268)" d="m0 0h1l1 12 1 32v25l-2 35-2 18h-1v-11l1-9v-10l-2-23-2-1 4-2 1-2h2l-1-12h-1l-2-18h1z" fill="#865B41"/>
<path transform="translate(489,162)" d="m0 0h1l3 24 3 38v36h2l1-12 4-32 1-12h1v14l-3 26-5 28-2 2-2-61-3-32-2-13-1-4h2z" fill="#865B41"/>
<path transform="translate(362,186)" d="m0 0h7v1l-13 2 3 19 2 12-3 1v-5h-2l-6-7-1-6h-2l-1 6h-1v-17l8-2 4-3z" fill="#7A4F39"/>
<path transform="translate(240,88)" d="m0 0h1l-1 11-2 20-3 47-1 51h-1l-1-51 1-18h-1l1-14 5-39z" fill="#865B41"/>
<path transform="translate(237,290)" d="m0 0 4 1 8 6-1 3-5 5-8 9-3 4h-2l1-8 4-15z" fill="#A98664"/>
<path transform="translate(633,349)" d="m0 0h5l4 7 3 1v2l9 2v3l5-2v-2h3l2-5 5-3v8l-1 7 2 1v5l-4 2-2-3 1-4v-7l-4 3h-3v2l-7 1 1-5-7 1v-3l-10-2-3-1v-7z" fill="#83583F"/>
<path transform="translate(847,344)" d="m0 0h2l2 16 3 17 4 23 4 27 1 17v12h-1l-4-36-4-25-2-10-2-17-3-13z" fill="#754A39"/>
<path transform="translate(39,368)" d="m0 0 1 3-3 9-2 20v21l1 11 6 24 11 24 5 8 4 6-1 2-9-12-8-16-5-12-5-22-1-10v-29l2-17z" fill="#461E1B"/>
<path transform="translate(622,134)" d="m0 0 4 1v7l-16 2-16 3-4 1v-2l10-6 8-4z" fill="#90694E"/>
<path transform="translate(591,401)" d="m0 0 6 2 5 5v2l3 1-1 8-1 1h-6l-3-2v-2l-2-1-1-1-4-2-4-5v-2l3 1v2l4 1-1-6h2z" fill="#663B30"/>
<path transform="translate(328,512)" d="m0 0h2l-1 5-7 19-8 28-3 11-3 9h-2l1-11 6-17 3-14 1-4h2l1-9 1-2h2v-6l2-5h2z" fill="#90694E"/>
<path transform="translate(374,128)" d="m0 0h30l19 3 9 1 1 4-7-1-15-3h-45l-12 1-2-2z" fill="#916B4F"/>
<path transform="translate(246,577)" d="m0 0h2l5 17 2 5-1 3-4-8-5-1v10l-4-1-2-6-1-14h2l1-2h2l2 6z" fill="#7A4F39"/>
<path transform="translate(790,427)" d="m0 0h1l3 38v77h-1l-1-26v-35l-1-13 1-14h-2v-7l-1-3v-16z" fill="#7C513A"/>
<path transform="translate(690,138)" d="m0 0h2l3 15 2 16 2 8 2 15v8l-2 4-3-24v-7l-4-1-11-11v-2l4 2 10 10-5-26z" fill="#967256"/>
<path transform="translate(259,554)" d="m0 0 4 5 11 14 8 7-2 1-16-9-14-11-2-3 4 2 5 2z" fill="#7C513A"/>
<path transform="translate(197,435)" d="m0 0h9v1l-16 4-10 1-14 4-20 3-6 2-10 2-16 4h-8l4-2 17-4h5v-2l17-3z" fill="#6E4334"/>
<path transform="translate(662,174)" d="m0 0h1l1 54-2 27h13l7 3 8 5-1 2-11-6-16-2-1 2-6-2v-2h5l1-13z" fill="#865B41"/>
<path transform="translate(340,347)" d="m0 0h8v2h2l1 4 3 1v2h2l-1 4-7 2v5l-7-1-1-4 1-3 2-1v-7z" fill="#9A785B"/>
<path transform="translate(372,245)" d="m0 0 9 1 19 6 17 6 5 3 11 6-3 1-8-3-6-1 2 4v3h-2l-4-11-15-6-19-5-6-1z" fill="#987558"/>
<path transform="translate(372,120)" d="m0 0h33l11 2 12 6 2 4-13-6-14-3h-27l-16 2h-6l-2-2z" fill="#8F694D"/>
<path transform="translate(644,286)" d="m0 0h10l8 4 1 2-9 2h-18l-2-1 2-4z" fill="#663B30"/>
<path transform="translate(608,297)" d="m0 0h1v11l4 4-1 13v20l3 13 4-2-1 5-2 3h-3l-3-14-1-10v-13l2-12 1-2-5 3h-2l1-11z" fill="#734836"/>
<path transform="translate(680,313)" d="m0 0 1 3h2l1 6 2 11-1 24-2 4-2-1v-23l-2-16-1-5z" fill="#461E1B"/>
<path transform="translate(392,297)" d="m0 0h8l3 1v7l-4 3h-11l-3-2 1-5z" fill="#AB8765"/>
<path transform="translate(203,411)" d="m0 0h8v1l-23 4-26 6-11 2-13 3-12 2-5 2-10 1v-2l17-4 12-2 12-3 11-2 20-4 1-1z" fill="#6F4434"/>
<path transform="translate(332,112)" d="m0 0h1l1 15 7-1h8v6 2 13h-1v-12h-16z" fill="#A17D5E"/>
<path transform="translate(816,178)" d="m0 0 5 5-1 2 3 15 4 16 5 27 1 17-2-4-6-35-3-13-6-27z" fill="#6D4234"/>
<path transform="translate(220,319)" d="m0 0 2 3v2h2l1 3 4 2-2 1-4 18-1 8-1-2h-7l-8-4 3-1 11 4z" fill="#7B503A"/>
<path transform="translate(266,236)" d="m0 0h1l2 24 1 2 4-2v2l3-1-3 13 5-2v-2l4-3 3 1-4 3h-2v2l-3 2-6 2-2 2-1-13-4 1v-2l4-1-1-3-1-13z" fill="#7E533C"/>
<path transform="translate(213,721)" d="m0 0m-1 1m-1 1m-2 1h2l-1 4-3 3-4 8-4 2v2l-5 3-8 1 3-6 10-8z" fill="#471F1C"/>
<path transform="translate(626,132)" d="m0 0 1 3 7-1 3 2 1 4 7 3v1h-7v2h-2l-2 2h-2l-1 2h-2l-1-8h-2l-1-8z" fill="#693E31"/>
<path transform="translate(843,556)" d="m0 0 3 1 1 5-3 9-3 2-7 1 1-11 6-5h2z" fill="#221615"/>
<path transform="translate(720,489)" d="m0 0 2 1v19l-1 16-2 7h-2v-15l2-27z" fill="#946F53"/>
<path transform="translate(223,454)" d="m0 0h1l1 10 9 27-1 3-4-10-3-9 1 17 2 21 2 8h-2l-1 3-3-26-3-43z" fill="#855A40"/>
<path transform="translate(637,136)" d="m0 0 13 2v2l5 1 5 3v3l-7 1-4-2-7-1v-2l-5-3z" fill="#A48060"/>
<path transform="translate(705,260)" d="m0 0h3l6 13 3 8 3 1v11l1 9h-7l-3-1-2-5h2l1 4 8 1-11-33-2-4-1 14-2 4v-18z" fill="#7E533C"/>
<path transform="translate(670,304)" d="m0 0 10 1 2 6-4 3h-9l-4-2 1-6z" fill="#AB8765"/>
<path transform="translate(673,348)" d="m0 0h5v15l3 1v4h-2l-3 12-2 5-1-4 4-21h-4l-1 2v-12z" fill="#855A40"/>
<path transform="translate(325,243)" d="m0 0h13v1l-7 2-10 4-3-1 4-2-16 3-13 4-10 4v-3l15-6 16-4z" fill="#7A4F3A"/>
<path transform="translate(329,536)" d="m0 0h2v3h-2l-1 7-2 5h-2v2h-2l3-10h2v-5zm-8 17 2 1-2 12-1 4h-2l-1 11-2 4h-2l1-9 1-4h2l1-10z" fill="#936D52"/>
<path transform="translate(732,268)" d="m0 0h1l1 12 1 32v25h-1l-1-17h-1l-2-18h1z" fill="#865B41"/>
<path transform="translate(783,365)" d="m0 0h1l6 51v11l-2-2-2-15-1-2v-9l-2-15z" fill="#7D523B"/>
<path transform="translate(831,397)" d="m0 0 2 3v2h2l5 15v6l-4-2-2-5-3-1-1-17z" fill="#6B4032"/>
<path transform="translate(787,586)" d="m0 0h4v18l-4 32-2 1v-11l1-2 2-33z" fill="#7D523A"/>
<path transform="translate(374,232)" d="m0 0 15 1 21 4 18 7v2l-6-1-8-3-20-5-16-2v-2z" fill="#9A785B"/>
<path transform="translate(337,546)" d="m0 0h3l-2 9-7 21h-2l-1 8-2 12h-1v-8l3-17 2-3 3-11 3-9z" fill="#926C50"/>
<path transform="translate(349,112)" d="m0 0h1l1 11 3 2-3 1v5l3 2h-4l1 7 1 28h-1l-1-6h-2l-1 4 1-19 1-13h-5l4-2 1-6-3-1 2-1z" fill="#80553D"/>
<path transform="translate(504,204)" d="m0 0h1v14l-3 26-5 28-2 2v-26h1v12h2l1-12 4-32z" fill="#865B41"/>
<path transform="translate(713,506)" d="m0 0h2l1 11-3 12-3 1-1 2h-2v-12l3-1z" fill="#936E52"/>
<path transform="translate(293,143)" d="m0 0h7l-1 3-10 4h-2l-1 3-6 2h-6l-1-2 16-8z" fill="#885E44"/>
<path transform="translate(26,542)" d="m0 0h1l3 46 1 16h-2l-6-14 1-4 4 10-2-29z" fill="#7F543C"/>
<path transform="translate(729,390)" d="m0 0h1v10l-7 34-3 14h-2l-1 7-3 7-1-3 4-15h2l1-8 5-22z" fill="#865B41"/>
<path transform="translate(734,434)" d="m0 0 3 1v53l-1 12-2-3 1-18 1-38-5 1 2-6z" fill="#967256"/>
<path transform="translate(822,568)" d="m0 0 1 2-5 21-5 15-4 11-3 1 2-9 4-9 5-17 3-13z" fill="#714635"/>
<path transform="translate(645,53)" d="m0 0 2 3 4 16 3 19 2 7 1 9-3 1-4-27-2-5-2-14z" fill="#8D654A"/>
<path transform="translate(421,275)" d="m0 0 5 5 4 5 2 1v2l2 1-5-1-8-4-4-1v-2l-6-1-1-3h10z" fill="#6C4133"/>
<path transform="translate(606,26)" d="m0 0 3 3 3 13 2 6 2 11v5h2l1 9-2 4-3-17-3-13-2-6-3-11z" fill="#936D51"/>
<path transform="translate(378,397)" d="m0 0h8l-1 2-15 2h-24l-4-1v-2h24z" fill="#784D39"/>
<path transform="translate(374,128)" d="m0 0h28l-2 3-34 1-12 1-2-2z" fill="#9A785B"/>
<path transform="translate(402,369)" d="m0 0 1 4-3 5h-2l-2 4-5 5-5 4-4 1 6-8 7-9 2-5 1 3v2h2l1-5z" fill="#693E31"/>
<path transform="translate(713,118)" d="m0 0 2 4 2 7 1 9 3 13 1 19h-1l-3-15-2-15-3-17z" fill="#906A4E"/>
<path transform="translate(660,142)" d="m0 0 1 2 6 2v2l5 2 2 1v3h2v2h-2l-1 2-5-2-4-4h-3l-1-7z" fill="#663B30"/>
<path transform="translate(625,234)" d="m0 0h1v17l-9 4-17 6-7 4-2-1 4-4 11-5 15-5h4z" fill="#967255"/>
<path transform="translate(858,508)" d="m0 0h1l1 36 3-26h1v16l-3 17-3 4z" fill="#784D38"/>
<path transform="translate(825,342)" d="m0 0 2 2 4 47 3 8-1 3-2-4-1 10h-1l-3-49z" fill="#865B41"/>
<path transform="translate(700,268)" d="m0 0h2l2 14 2-4 1 14 1 2-2 6h-2l-3-13-2-4 2-1z" fill="#7B503A"/>
<path transform="translate(275,133)" d="m0 0 1 4-2 12v5l3 2-5 2-1-3-3 1-1 2-2-1 4-10z" fill="#7D523B"/>
<path transform="translate(179,460)" d="m0 0h11l-2 2-45 9h-7l4-2 12-3 23-4z" fill="#6F4434"/>
<path transform="translate(407,320)" d="m0 0h2l1 4v12l-2 22-3 10h-3l4-16 1-10z" fill="#704535"/>
<path transform="translate(218,390)" d="m0 0 5 1 1 3v14l-2 1h-6v2h-8l3-2 10-3-1-12-6-1v-2z" fill="#6D4233"/>
<path transform="translate(583,396)" d="m0 0 8 1 2 4h-2v4l-1 4-4-1-3-3z" fill="#7A4F39"/>
<path transform="translate(683,316)" d="m0 0 2 3 2 9v29l-1 7-2-4 1-29-2-9-1-3z" fill="#6B4032"/>
<path transform="translate(722,170)" d="m0 0 2 2 2 22 1 2v20l-2-3-2-25-1-5z" fill="#8F694D"/>
<path transform="translate(105,491)" d="m0 0 2 3 4 15-1 4h-1l-1 11h-1l-2-17z" fill="#865B41"/>
<path transform="translate(337,339)" d="m0 0h9l1 5h2l1 5h-2v-2h-8l-4-3z" fill="#855A40"/>
<path transform="translate(350,347)" d="m0 0 4 4 8 1v2h2v2l8-2v-2h2v-2l3-1-1 4-6 5-8 1v-4l-5-1v2h-3l-4-5z" fill="#6F4434"/>
<path transform="translate(308,306)" d="m0 0h2v2l-15 6-14 9-3 1 1-4 3-1 7-7h6v-2z" fill="#7C513A"/>
<path transform="translate(499,32)" d="m0 0h2l3 36 2 14-3 3-4-49z" fill="#865B41"/>
<path transform="translate(622,136)" d="m0 0 4 1-1 4-17 1-7 1 3-3 10-3z" fill="#AD8967"/>
<path transform="translate(861,551)" d="m0 0h1v6h-2l-2 11-5 16-5 13-2 1 1-5 6-16 3-15 1-3h2l1-7z" fill="#461E1B"/>
<path transform="translate(9,542)" d="m0 0 2 4 7 23 4 11-1 4-4-12v-2h-3l-5-22z" fill="#815740"/>
<path transform="translate(620,349)" d="m0 0 9 2 1 1v5l-11 2v-8z" fill="#865B41"/>
<path transform="translate(378,350)" d="m0 0h5l-1 7-2 5-1-2-5-1v-2h-2l2-4h2v-2z" fill="#9A775A"/>
<path transform="translate(641,163)" d="m0 0 2 1 2 10v6l-2-3-1 5-1 26h-2v-12z" fill="#9A785B"/>
<path transform="translate(249,696)" d="m0 0 2 1-4 4-9 4-5-1-4-5h3l3 1 2-1 7-1z" fill="#916C51"/>
<path transform="translate(240,288)" d="m0 0 7 2h7l6-2-4 5-7 1 1 5-8-6-5-3-1 5-1-4 1-2z" fill="#744937"/>
<path transform="translate(727,216)" d="m0 0h1l2 10 2 29v13h-1l-3-33-1-4z" fill="#865B41"/>
<path transform="translate(857,408)" d="m0 0 2 1 3 18 1 17v12h-1l-4-36z" fill="#764B38"/>
<path transform="translate(247,50)" d="m0 0 3 1-2 9-1 1-2 14-2 7-1 6h-1l1-13 2-15 1-1 1-8z" fill="#916B4F"/>
<path transform="translate(164,333)" d="m0 0 12 3 11 5 19 7-4 1-17-6-9-4-9-3z" fill="#724736"/>
<path transform="translate(633,349)" d="m0 0h5l6 9-1 2-11-3v-7z" fill="#855A40"/>
<path transform="translate(328,512)" d="m0 0h2l-1 5-7 19-2 4v-11l1-2h2v-6l2-5h2z" fill="#957054"/>
<path transform="translate(319,365)" d="m0 0h5l7 9 5 6 2 2-1 2-4-2-9-11z" fill="#7F543C"/>
<path transform="translate(621,268)" d="m0 0h3v7l-15 1v-2z" fill="#A98664"/>
<path transform="translate(488,167)" d="m0 0h1l2 14v8h-1l-1-5h-1l-2 20h-1v-12l2-24z" fill="#9B795C"/>
<path transform="translate(826,222)" d="m0 0h2l4 21 1 17-2-4-5-28z" fill="#734836"/>
<path transform="translate(274,324)" d="m0 0 4 1-7 7-7 10-2 2-1-4 2-3 3-1v-4h2l2-4z" fill="#7B5039"/>
<path transform="translate(320,246)" d="m0 0 4 1-14 6-4 2-3-1 1-3-2-1z" fill="#9A785B"/>
<path transform="translate(364,575)" d="m0 0 1 4-8 18-3 2v-6h2l1-5 4-10h2z" fill="#977457"/>
<path transform="translate(217,354)" d="m0 0h4l1 2v16l-1 17h-1v-17l-5-1 1-2h3v-13z" fill="#6D4234"/>
<path transform="translate(720,306)" d="m0 0h2l4 14-1 4-4-6-4-8v-3z" fill="#99775A"/>
<path transform="translate(600,203)" d="m0 0h26v1h-11l-1 2-17 1-4 1-1-3z" fill="#987558"/>
<path transform="translate(814,711)" d="m0 0 7 1 1 6-2 2-6-1-1-5z" fill="#5B3329"/>
<path transform="translate(274,556)" d="m0 0 4 2 10 6 10 4v2l-9-2-17-9 2-2z" fill="#885F45"/>
<path transform="translate(142,423)" d="m0 0h6l-1 2-21 4-5 2-10 1v-2l17-4 12-2z" fill="#714636"/>
<path transform="translate(694,242)" d="m0 0 2 3 2-1 3 20-1 8h-1l-4-22-1-2z" fill="#82573E"/>
<path transform="translate(555,559)" d="m0 0 5 1 3 3 1 5v8l-3 8-2 1 1-5 1-8-1-9-5-3z" fill="#6F4434"/>
<path transform="translate(765,266)" d="m0 0 2 2 3 14v6l-2-4-2-6-1 15h-1v-22z" fill="#865B41"/>
<path transform="translate(372,120)" d="m0 0h8l-1 2-13 2-12 1-2-2z" fill="#946F53"/>
<path transform="translate(197,696)" d="m0 0h2l-1 8-6 21h-3l4-13z" fill="#461E1B"/>
<path transform="translate(267,192)" d="m0 0h1l-1 44h-1l-2-15-1-3 2-2 1-17z" fill="#7D523B"/>
<path transform="translate(163,718)" d="m0 0 3 3 5 6v2h2l7 8 3 6-4-2-8-9-8-10z" fill="#6F4434"/>
<path transform="translate(677,620)" d="m0 0 2 2-4 4h-20l-25-1v-1h43z" fill="#9A775A"/>
<path transform="translate(787,586)" d="m0 0h4v18l-2 4-1-1v-16z" fill="#7A4F38"/>
<path transform="translate(693,543)" d="m0 0h1l-1 14-1 3h-2l-2 10-1 2h-2l1-7 1-3h2l2-15h2z" fill="#906A4E"/>
<path transform="translate(380,340)" d="m0 0h5v8l-2 4v-2l-6 1 1-5z" fill="#855A40"/>
<path transform="translate(413,261)" d="m0 0h9l11 6-3 1-8-3-6-1 2 4v3h-2l-3-7z" fill="#895F45"/>
<path transform="translate(608,297)" d="m0 0h1v11l4 4-1 2-7 2 1-11z" fill="#7D523B"/>
<path transform="translate(668,166)" d="m0 0 3 4 4 9-1 3-3-4-2-3-1 17h-1v-25z" fill="#9B795C"/>
<path transform="translate(690,138)" d="m0 0h2l3 15 1 10-3-3-3-15z" fill="#977356"/>
<path transform="translate(313,561)" d="m0 0 1 3-3 11-3 9h-2l1-11 2-7 2 1z" fill="#977356"/>
<path transform="translate(371,261)" d="m0 0 7 2v1h-5l2 7 9 3-1 3-5-1-5-3v-2h-3z" fill="#784D3A"/>
<path transform="translate(655,259)" d="m0 0h5l-1 11-1 3h-3z" fill="#A78463"/>
<path transform="translate(379,394)" d="m0 0 8 2v3l-2-1-29 1 2-2 15-1z" fill="#9D7A5C"/>
<path transform="translate(643,357)" d="m0 0h2v2l9 2v3l5-2v-2l3 1-4 5-7 1 1-5-7 1z" fill="#6C4133"/>
<path transform="translate(732,332)" d="m0 0h2v14l-1 5h-1l-1-11h-2v-3l-2-1 4-2z" fill="#7A4F38"/>
<path transform="translate(191,655)" d="m0 0 5 5 9 11 6 8-4-2-14-16-2-3z" fill="#7E533B"/>
<path transform="translate(43,284)" d="m0 0h1v12l-1 2-2 12-2 9h-1l1-11z" fill="#7F543C"/>
<path transform="translate(325,243)" d="m0 0h13v1l-7 2-10 4-3-1 4-2-4-2z" fill="#714635"/>
<path transform="translate(681,159)" d="m0 0 4 2 10 10-1-10 2 2 1 11-5-2-11-11z" fill="#8F674C"/>
<path transform="translate(792,572)" d="m0 0h1l-1 24h-1l-1-9-4-2v-5h6z" fill="#8F674B"/>
<path transform="translate(82,387)" d="m0 0 3 1-11 9-10 7-2 3 1-5 3-3h2v-2l8-5 4-2v-2z" fill="#6D4233"/>
<path transform="translate(661,255)" d="m0 0h14l7 3 8 5-1 2-11-6-8-2-9-1z" fill="#744936"/>
<path transform="translate(237,502)" d="m0 0 3 4 5 9 7 14-1 2-5-8v-2l-3-1-4-11-2-4z" fill="#8B6248"/>
<path transform="translate(101,308)" d="m0 0 9 2 8 3 9 4-2 2-7-3-12-4-5-2z" fill="#6F4434"/>
<path transform="translate(630,250)" d="m0 0 1 3-2 10h-3l-1 2v-13z" fill="#7B503A"/>
<path transform="translate(132,448)" d="m0 0h7v1l-9 3-16 4h-8l4-2 17-4h5z" fill="#764B39"/>
<path transform="translate(88,415)" d="m0 0 3 1-3 2-7 1-6 2-12 1v-5l1 4 14-4z" fill="#724736"/>
<path transform="translate(360,221)" d="m0 0 2 3 1 8h11l4 2-13 1-1 4-3-7-2-10z" fill="#80553C"/>
<path transform="translate(400,353)" d="m0 0h1l-1 9-4 13-4 4 3-10 3-11z" fill="#7F543C"/>
<path transform="translate(343,561)" d="m0 0 2 1-2 5-3 3-3 7h-2l-1 3-1-2 6-12 3-1z" fill="#926D51"/>
<path transform="translate(722,432)" d="m0 0 1 2-3 14h-2l-1 7-3 7-1-3 4-15h2l1-8z" fill="#8A6146"/>
<path transform="translate(632,381)" d="m0 0 5 5 3 2v5l1 2-4-2-6-6z" fill="#977357"/>
<path transform="translate(712,462)" d="m0 0 1 3 4-1-3 6h-2l-2 4-5 4 2-5z" fill="#845A41"/>
<path transform="translate(783,365)" d="m0 0h1l3 25v6h-2l-2-12z" fill="#80553D"/>
<path transform="translate(132,615)" d="m0 0 4 4 6 18-1 3-7-16z" fill="#7E533B"/>
<path transform="translate(212,454)" d="m0 0 6 1v1l-21 4-7 1 4-2 8-3 9-1z" fill="#744A38"/>
<path transform="translate(386,356)" d="m0 0 1 4-3 5-4 1-2-2 3-7 5 1z" fill="#865B41"/>
<path transform="translate(753,617)" d="m0 0v3l-8 11-1 1h-10v-1l8-2 7-7z" fill="#461E1B"/>
<path transform="translate(832,407)" d="m0 0 3 3 2 6 3 1v6l-4-2-4-9z" fill="#582E26"/>
<path transform="translate(655,104)" d="m0 0 2 3 5 13-1 2-3-1v5h-1l-2-17z" fill="#82573E"/>
<path transform="translate(350,654)" d="m0 0 4 1-13 5-9 4h-6l2-2 10-3z" fill="#714635"/>
<path transform="translate(126,407)" d="m0 0h5l-3 2-12 3-7 1-3-1 4-2z" fill="#6D4233"/>
<path transform="translate(262,221)" d="m0 0 1 2-11 25-2-4 3-4 2-6 3-5 3-7z" fill="#7E533B"/>
<path transform="translate(233,302)" d="m0 0h1v6l1 2 3 1-6 7h-2l1-8z" fill="#9A775A"/>
<path transform="translate(296,143)" d="m0 0h4l-1 3-12 5h-4v-2l10-4h3z" fill="#A68362"/>
<path transform="translate(318,566)" d="m0 0 1 4-3 14-3 1 1-9 1-4h2z" fill="#916B4F"/>
<path transform="translate(91,458)" d="m0 0h5l-3 1v2l-20 5-3-2 20-5z" fill="#744A38"/>
<path transform="translate(637,136)" d="m0 0 13 2v2l5 1 5 3-2 1-6-3-14-4-1 2z" fill="#8A6247"/>
<path transform="translate(348,13)" d="m0 0 2 1-3 7-3 16-2-3 1-8 4-12z" fill="#906A4E"/>
<path transform="translate(702,526)" d="m0 0 2 3-1 16h-2v-17z" fill="#9B795C"/>
<path transform="translate(854,384)" d="m0 0 2 3 2 13v8h-2l-2-20z" fill="#6E4334"/>
<path transform="translate(322,340)" d="m0 0h10l2 3-12 1-4 1v2h-2l2-6 4 1z" fill="#855A40"/>
<path transform="translate(403,300)" d="m0 0h2l3 9 1 11h-2l-2-12-4-2z" fill="#744A38"/>
<path transform="translate(243,570)" d="m0 0h1v6h2v10l-2 1-2-7v-8z" fill="#663B30"/>
<path transform="translate(646,403)" d="m0 0h13l3 3h-21l4-2z" fill="#9C7A5D"/>
<path transform="translate(625,234)" d="m0 0h1v17l-6 3h-6l1-2 6-2h4z" fill="#957154"/>
<path transform="translate(279,116)" d="m0 0h1v8l-3 12-2-3 2-13h2z" fill="#957054"/>
<path transform="translate(190,362)" d="m0 0 7 1 18 6v2l-11-3-14-5z" fill="#714635"/>
<path transform="translate(612,351)" d="m0 0 2 4 2 3 3-2-1 5-2 3h-3l-1-4z" fill="#6F4535"/>
<path transform="translate(719,305)" d="m0 0h4l4 11v10l-2-2-1-8-2-10-5 1-1 3v-4z" fill="#7C513B"/>
<path transform="translate(816,178)" d="m0 0 5 5-1 2 1 5v9h-1l-4-18z" fill="#754A38"/>
<path transform="translate(171,628)" d="m0 0 12 15v2l-4-2-4-6-5-5z" fill="#7E533B"/>
<path transform="translate(792,564)" d="m0 0h1l-1 16h-4l2-10z" fill="#794E38"/>
<path transform="translate(828,512)" d="m0 0 3 2v7h-1l-1 9-2 2z" fill="#7C513A"/>
<path transform="translate(633,356)" d="m0 0 10 3 2 1v3l3 1-4 1-6-5-12-2v-1z" fill="#9A785B"/>
<path transform="translate(495,248)" d="m0 0h1l1 14 1 5-2 7h-1z" fill="#7B5039"/>
<path transform="translate(628,204)" d="m0 0 10 2 2 3-10-1-2 4-1-7z" fill="#663B30"/>
<path transform="translate(299,145)" d="m0 0 2 3h1v5l-3 1-2 2 1-8-8 3-3-1z" fill="#7F543C"/>
<path transform="translate(419,131)" d="m0 0 13 1 1 4-7-1-10-2z" fill="#926D51"/>
<path transform="translate(324,660)" d="m0 0h10l-3 2-8 3h-3v-2l-3-1z" fill="#9A775A"/>
<path transform="translate(388,642)" d="m0 0h6l-2 2-20 5-4-1z" fill="#946F53"/>
<path transform="translate(844,325)" d="m0 0h1l3 13-1 10h-1l-2-16z" fill="#774C38"/>
<path transform="translate(733,312)" d="m0 0h2v25h-1l-1-17h-1v-7z" fill="#855A40"/>
<path transform="translate(367,245)" d="m0 0 8 1v1h-7l2 7v4h-2l-2-5v-7z" fill="#774C38"/>
<path transform="translate(609,209)" d="m0 0 2 1-9 9-7 9-1-3 4-4 1-3 8-7z" fill="#8E664B"/>
<path transform="translate(284,94)" d="m0 0h2v7l-3 10-2 1 1-8z" fill="#916B50"/>
<path transform="translate(126,471)" d="m0 0h10l-2 2-13 3h-3v-2z" fill="#6F4535"/>
<path transform="translate(83,366)" d="m0 0m-1 1v3l-8 6-7 5-2-1 12-10z" fill="#704535"/>
<path transform="translate(624,752)" d="m0 0m-3 1h3l1 7h-6v-5z" fill="#684032"/>
<path transform="translate(338,381)" d="m0 0 5 3 4 5 1 2-5-2-3-1-3-3z" fill="#99775A"/>
<path transform="translate(666,364)" d="m0 0 4 4v5l-4 2-2-3z" fill="#865B41"/>
<path transform="translate(342,360)" d="m0 0 4 2 2 2-1 3-6-1-1-4z" fill="#865B41"/>
<path transform="translate(671,356)" d="m0 0h1v8l-1 4h-4l1-8h2z" fill="#7B5039"/>
<path transform="translate(192,308)" d="m0 0 2 1-8 5-4 4-5 2v-2h2v-2l7-5h2v-2z" fill="#6A3F32"/>
<path transform="translate(322,140)" d="m0 0 2 2v26h-1l-1-24-4-1v-2z" fill="#9B795C"/>
<path transform="translate(256,548)" d="m0 0 5 2 11 7-2 1-11-6-1 2-2-3z" fill="#83583F"/>
<path transform="translate(378,397)" d="m0 0h8l-1 2-6 1h-9l-4-2z" fill="#7F543C"/>
<path transform="translate(309,347)" d="m0 0 3 4h1l2 9 2 5-2 1-4-9-2-5z" fill="#7B503A"/>
<path transform="translate(272,275)" d="m0 0 3 1h-2v11l-2 1-2-6v-3z" fill="#663B30"/>
<path transform="translate(708,98)" d="m0 0 2 1 3 13v6l-2-4-3-9z" fill="#8E664B"/>
<path transform="translate(718,517)" d="m0 0 1 4 2-1-1 11-3 1v-14z" fill="#9B795C"/>
<path transform="translate(713,506)" d="m0 0h2l1 11h-3l-2 3 1-11z" fill="#9B795C"/>
<path transform="translate(732,290)" d="m0 0h1v23l-2-1-1-10h1z" fill="#967356"/>
<path transform="translate(676,304)" d="m0 0h5l2 3v3h3v2l4 2 1 2-8-4-1 3-2-9z" fill="#81563D"/>
<path transform="translate(708,262)" d="m0 0 2 3 5 10 1 8-2-1-6-16z" fill="#7E533B"/>
<path transform="translate(634,247)" d="m0 0h8l-2 2-12 3-3-1 1-2z" fill="#6F4435"/>
<path transform="translate(523,238)" d="m0 0 2 3 1 2v17h-1l-2-15z" fill="#855A40"/>
<path transform="translate(224,237)" d="m0 0h2l-1 5-2 23h-1l1-25z" fill="#7F543C"/>
<path transform="translate(313,149)" d="m0 0 1 3-6 14-2-3 4-9 1-3z" fill="#7E533C"/>
<path transform="translate(233,146)" d="m0 0h1l-1 12-1 1-1 9-2-1 2-17z" fill="#80553C"/>
<path transform="translate(123,590)" d="m0 0 3 1 2 6 2 3-1 3-3 1-2-9z" fill="#7D523A"/>
<path transform="translate(242,553)" d="m0 0 4 2 2 4-3-1 1 12-2-4-2-8z" fill="#987558"/>
<path transform="translate(829,391)" d="m0 0h2l3 8-1 3-2-4-1 10h-1z" fill="#82573E"/>
<path transform="translate(135,349)" d="m0 0 2 1-5 4-10 7-3 1v-2l8-5 1-2h3v-2z" fill="#6E4334"/>
<path transform="translate(607,294)" d="m0 0h2l-2 11-1 5h-1v-10l-1-4z" fill="#9A775A"/>
<path transform="translate(385,185)" d="m0 0h12l5 2v2l-13-2z" fill="#936E52"/>
<path transform="translate(813,602)" d="m0 0 1 2-4 10-1 3-3 1 2-9 2-4h2z" fill="#734837"/>
<path transform="translate(259,552)" d="m0 0 5 2 6 3-4 1-2 3-5-7z" fill="#9E7B5D"/>
<path transform="translate(713,511)" d="m0 0h1l1 9-2 9h-2l1-12z" fill="#8E674C"/>
<path transform="translate(226,504)" d="m0 0h2l2 13 1 4h-2l-1 3z" fill="#83583F"/>
<path transform="translate(672,380)" d="m0 0 2 1-2 7h-2l-1 4-2 1-1-4 4-5z" fill="#99775A"/>
<path transform="translate(350,347)" d="m0 0 4 4 8 1-1 2-4-1v3h-3l-4-5z" fill="#6C4133"/>
<path transform="translate(697,322)" d="m0 0 4 2v3h3l2 7-1 4-6-12z" fill="#7E533B"/>
<path transform="translate(218,267)" d="m0 0h2v2l-6 2v2h-3l-2 4h-3l-1 2v-3z" fill="#6B4032"/>
<path transform="translate(537,590)" d="m0 0h7l7 2v1h-17l3-1z" fill="#9B795C"/>
<path transform="translate(659,296)" d="m0 0 5 1-1 5h-5v-5z" fill="#663B30"/>
<path transform="translate(625,375)" d="m0 0 4 1 3 5-1 5-3-4-3-5z" fill="#7E533B"/>
<path transform="translate(677,368)" d="m0 0h2l-3 12-2 5-1-4 1-6h2z" fill="#7E533B"/>
<path transform="translate(645,256)" d="m0 0h6v2l-15 4-4-1 12-4z" fill="#764C39"/>
<path transform="translate(271,154)" d="m0 0h1v5l-6 1-1 2h-2v-4h4l1-3z" fill="#6A3F31"/>
<path transform="translate(606,26)" d="m0 0 3 3 2 7-1 5-2-4-2-7z" fill="#947054"/>
<path transform="translate(358,586)" d="m0 0 1 4-2 7-3 2v-6h2l1-5z" fill="#936E52"/>
<path transform="translate(272,572)" d="m0 0 7 6 3 3-6-2-7-4 3-1z" fill="#865B41"/>
<path transform="translate(142,403)" d="m0 0 4 1-6 3h-12v-1z" fill="#724736"/>
<path transform="translate(683,316)" d="m0 0 2 3 2 9v8h-1l-3-14-1-3z" fill="#734836"/>
<path transform="translate(277,260)" d="m0 0 2 1-2 8 2 1v2l-5 2 2-11z" fill="#99775A"/>
<path transform="translate(271,263)" d="m0 0h2l-1 13h-2v-12z" fill="#A07E5F"/>
<path transform="translate(378,263)" d="m0 0 7 1 1 2h-7l-5-1 1 6-2-1v-6z" fill="#957154"/>
<path transform="translate(282,150)" d="m0 0 5 1-3 3-10 1 4-3z" fill="#936E52"/>
<path transform="translate(654,92)" d="m0 0h1l2 11-1 4-2 1-1-11z" fill="#987659"/>
<path transform="translate(247,50)" d="m0 0 3 1-2 9-2 5h-1l1-14z" fill="#8F684D"/>
<path transform="translate(578,852)" d="m0 0 5 1-1 4-4 1-1-5z" fill="#6E4636"/>
<path transform="translate(320,556)" d="m0 0 2 4-2 10-2-4 1-8z" fill="#987458"/>
<path transform="translate(337,546)" d="m0 0h3l-1 5-4 8-1-3z" fill="#916B4F"/>
<path transform="translate(222,405)" d="m0 0 1 3-1 1h-6v2h-8l3-2 10-3z" fill="#693E31"/>
<path transform="translate(178,356)" d="m0 0 15 5v1h-6l-9-4z" fill="#6E4334"/>
<path transform="translate(705,289)" d="m0 0 3 4-2 7h-2l-1-9z" fill="#663B30"/>
<path transform="translate(702,83)" d="m0 0h3l3 12-1 3-5-13z" fill="#906A4E"/>
<path transform="translate(386,266)" d="m0 0 10 2 4 4-8-2-6-3z" fill="#906A4E"/>
<path transform="translate(655,255)" d="m0 0 15 1v1h-8l-1 2-6-2z" fill="#81573F"/>
<path transform="translate(325,178)" d="m0 0h1l1 8 1 1v10l-3-1h2l-2-8z" fill="#957054"/>
<path transform="translate(183,645)" d="m0 0 5 5 3 5-2 1-7-8z" fill="#7D523B"/>
<path transform="translate(671,342)" d="m0 0 2 4-1 10-2 2v-9z" fill="#663B30"/>
<path transform="translate(308,306)" d="m0 0h2v2l-13 5h-2v-3z" fill="#81563E"/>
<path transform="translate(662,257)" d="m0 0h12v1h-5l1 3-6-1-2-1z" fill="#987559"/>
<path transform="translate(105,348)" d="m0 0h2l-1 3-5 4-5 1 5-5z" fill="#6F4434"/>
<path transform="translate(113,312)" d="m0 0 5 1 9 4-2 2-7-3-3-1v-2z" fill="#764C39"/>
<path transform="translate(173,298)" d="m0 0 1 2-6 5-5 3-2-1 10-8z" fill="#6E4334"/>
<path transform="translate(416,241)" d="m0 0 7 1 5 2v2l-6-1-6-3z" fill="#946F53"/>
<path transform="translate(524,230)" d="m0 0 2 2v11l-2-2-1-9z" fill="#794E38"/>
<path transform="translate(727,216)" d="m0 0h1l2 10v7l-3-2z" fill="#926C50"/>
<path transform="translate(600,203)" d="m0 0 1 2h5v1l-13 2-1-3z" fill="#9B795C"/>
<path transform="translate(356,122)" d="m0 0 10 1v1l-12 1-2-2z" fill="#997659"/>
</svg>
